<svg width="159" height="48" viewBox="0 0 159 48" fill="none" xmlns="http://www.w3.org/2000/svg">
<path d="M8.856 37V14.284H1.836V10.684H19.764V14.284H12.744V37H8.856ZM27.8859 37.36C26.2779 37.36 24.8619 37.048 23.6379 36.424C22.4379 35.776 21.5139 34.876 20.8659 33.724C20.2179 32.572 19.8939 31.228 19.8939 29.692V24.508C19.8939 22.948 20.2179 21.604 20.8659 20.476C21.5139 19.324 22.4379 18.436 23.6379 17.812C24.8619 17.164 26.2779 16.84 27.8859 16.84C29.5179 16.84 30.9339 17.164 32.1339 17.812C33.3339 18.436 34.2579 19.324 34.9059 20.476C35.5539 21.604 35.8779 22.948 35.8779 24.508V28.036H23.6379V29.692C23.6379 31.156 23.9979 32.272 24.7179 33.04C25.4619 33.808 26.5299 34.192 27.9219 34.192C29.0499 34.192 29.9619 34 30.6579 33.616C31.3539 33.208 31.7859 32.62 31.9539 31.852H35.8059C35.5179 33.532 34.6539 34.876 33.2139 35.884C31.7739 36.868 29.9979 37.36 27.8859 37.36ZM32.1339 25.696V24.472C32.1339 23.032 31.7739 21.916 31.0539 21.124C30.3339 20.332 29.2779 19.936 27.8859 19.936C26.5179 19.936 25.4619 20.332 24.7179 21.124C23.9979 21.916 23.6379 23.044 23.6379 24.508V25.408L32.4219 25.372L32.1339 25.696ZM45.1159 37.36C43.4839 37.36 42.0439 37.06 40.7959 36.46C39.5719 35.836 38.6239 34.948 37.9519 33.796C37.3039 32.62 36.9799 31.252 36.9799 29.692V24.508C36.9799 22.924 37.3039 21.556 37.9519 20.404C38.6239 19.252 39.5719 18.376 40.7959 17.776C42.0439 17.152 43.4839 16.84 45.1159 16.84C47.4919 16.84 49.3999 17.464 50.8399 18.712C52.2799 19.96 53.0359 21.664 53.1079 23.824H49.2199C49.1479 22.696 48.7519 21.82 48.0319 21.196C47.3119 20.572 46.3399 20.26 45.1159 20.26C43.7959 20.26 42.7519 20.632 41.9839 21.376C41.2159 22.096 40.8319 23.128 40.8319 24.472V29.692C40.8319 31.036 41.2159 32.08 41.9839 32.824C42.7519 33.568 43.7959 33.94 45.1159 33.94C46.3399 33.94 47.3119 33.628 48.0319 33.004C48.7519 32.38 49.1479 31.504 49.2199 30.376H53.1079C53.0359 32.536 52.2799 34.24 50.8399 35.488C49.3999 36.736 47.4919 37.36 45.1159 37.36ZM54.2818 37V10.72H58.1698V17.2L58.1338 20.98H59.0698L58.1338 21.88C58.1338 20.296 58.6018 19.06 59.5378 18.172C60.4738 17.284 61.7698 16.84 63.4258 16.84C65.3938 16.84 66.9658 17.476 68.1418 18.748C69.3178 19.996 69.9058 21.688 69.9058 23.824V37H66.0178V24.256C66.0178 22.96 65.6698 21.952 64.9738 21.232C64.2778 20.512 63.3298 20.152 62.1298 20.152C60.9058 20.152 59.9338 20.536 59.2138 21.304C58.5178 22.048 58.1698 23.116 58.1698 24.508V37H54.2818ZM79.2518 37.36C77.4758 37.36 75.9518 37.072 74.6798 36.496C73.4078 35.896 72.4238 35.056 71.7278 33.976C71.0318 32.872 70.6838 31.564 70.6838 30.052H74.5358C74.5358 31.252 74.9558 32.2 75.7958 32.896C76.6358 33.568 77.7998 33.904 79.2878 33.904C80.6798 33.904 81.7718 33.568 82.5638 32.896C83.3558 32.224 83.7518 31.3 83.7518 30.124C83.7518 29.14 83.4758 28.288 82.9238 27.568C82.3958 26.848 81.6278 26.356 80.6198 26.092L77.3078 25.12C75.3878 24.568 73.8998 23.632 72.8438 22.312C71.8118 20.968 71.2958 19.372 71.2958 17.524C71.2958 16.084 71.6198 14.824 72.2678 13.744C72.9158 12.664 73.8398 11.824 75.0398 11.224C76.2398 10.624 77.6558 10.324 79.2878 10.324C81.6878 10.324 83.6078 10.972 85.0478 12.268C86.5118 13.564 87.2558 15.304 87.2798 17.488H83.3918C83.3918 16.336 83.0198 15.436 82.2758 14.788C81.5558 14.116 80.5358 13.78 79.2158 13.78C77.9438 13.78 76.9478 14.092 76.2278 14.716C75.5078 15.316 75.1478 16.168 75.1478 17.272C75.1478 18.256 75.4118 19.108 75.9398 19.828C76.4918 20.548 77.2718 21.052 78.2798 21.34L81.6278 22.348C83.5478 22.876 85.0238 23.812 86.0558 25.156C87.0878 26.5 87.6038 28.108 87.6038 29.98C87.6038 31.444 87.2558 32.74 86.5598 33.868C85.8638 34.972 84.8918 35.836 83.6438 36.46C82.3958 37.06 80.9318 37.36 79.2518 37.36ZM98.3897 37C96.5897 37 95.1857 36.508 94.1777 35.524C93.1697 34.54 92.6657 33.172 92.6657 31.42V20.728H87.1937V17.2H92.6657V11.62H96.5537V17.2H104.294V20.728H96.5537V31.42C96.5537 32.788 97.2137 33.472 98.5337 33.472H103.934V37H98.3897ZM113.316 37.324C111.684 37.324 110.268 37.012 109.068 36.388C107.868 35.764 106.944 34.876 106.296 33.724C105.648 32.572 105.324 31.216 105.324 29.656V24.544C105.324 22.96 105.648 21.604 106.296 20.476C106.944 19.324 107.868 18.436 109.068 17.812C110.268 17.188 111.684 16.876 113.316 16.876C114.948 16.876 116.364 17.188 117.564 17.812C118.764 18.436 119.688 19.324 120.336 20.476C120.984 21.604 121.308 22.96 121.308 24.544V29.656C121.308 31.216 120.984 32.572 120.336 33.724C119.688 34.876 118.764 35.764 117.564 36.388C116.364 37.012 114.948 37.324 113.316 37.324ZM113.316 33.904C114.636 33.904 115.656 33.544 116.376 32.824C117.096 32.08 117.456 31.024 117.456 29.656V24.544C117.456 23.152 117.096 22.096 116.376 21.376C115.656 20.656 114.636 20.296 113.316 20.296C112.02 20.296 111 20.656 110.256 21.376C109.536 22.096 109.176 23.152 109.176 24.544V29.656C109.176 31.024 109.536 32.08 110.256 32.824C111 33.544 112.02 33.904 113.316 33.904ZM123.274 37V17.2H127.018V20.98H127.954L126.766 23.32C126.766 21.184 127.234 19.576 128.17 18.496C129.106 17.392 130.498 16.84 132.346 16.84C134.458 16.84 136.126 17.5 137.35 18.82C138.598 20.116 139.222 21.904 139.222 24.184V25.516H135.226V24.508C135.226 23.092 134.866 22.012 134.146 21.268C133.45 20.5 132.466 20.116 131.194 20.116C129.922 20.116 128.926 20.5 128.206 21.268C127.51 22.036 127.162 23.116 127.162 24.508V37H123.274ZM147.488 37.36C145.88 37.36 144.464 37.048 143.24 36.424C142.04 35.776 141.116 34.876 140.468 33.724C139.82 32.572 139.496 31.228 139.496 29.692V24.508C139.496 22.948 139.82 21.604 140.468 20.476C141.116 19.324 142.04 18.436 143.24 17.812C144.464 17.164 145.88 16.84 147.488 16.84C149.12 16.84 150.536 17.164 151.736 17.812C152.936 18.436 153.86 19.324 154.508 20.476C155.156 21.604 155.48 22.948 155.48 24.508V28.036H143.24V29.692C143.24 31.156 143.6 32.272 144.32 33.04C145.064 33.808 146.132 34.192 147.524 34.192C148.652 34.192 149.564 34 150.26 33.616C150.956 33.208 151.388 32.62 151.556 31.852H155.408C155.12 33.532 154.256 34.876 152.816 35.884C151.376 36.868 149.6 37.36 147.488 37.36ZM151.736 25.696V24.472C151.736 23.032 151.376 21.916 150.656 21.124C149.936 20.332 148.88 19.936 147.488 19.936C146.12 19.936 145.064 20.332 144.32 21.124C143.6 21.916 143.24 23.044 143.24 24.508V25.408L152.024 25.372L151.736 25.696Z" fill="#737373"/>
</svg>
